<?xml version="1.0" standalone="no"?><!DOCTYPE svg PUBLIC "-//W3C//DTD SVG 1.1//EN" "http://www.w3.org/Graphics/SVG/1.1/DTD/svg11.dtd"><svg t="1584770137955" class="icon" viewBox="0 0 1024 1024" version="1.1" xmlns="http://www.w3.org/2000/svg" p-id="1458" xmlns:xlink="http://www.w3.org/1999/xlink" width="200" height="200"><defs><style type="text/css"></style></defs><path d="M588.7 435.4c-61.8-61.8-154.8-73-228.3-34.2 93 91.3 148.1 219.9 156 355.3 26.4-9.4 51.1-24.6 72.3-45.7 76-76.1 76-199.3 0-275.4z" fill="#89C3EB" p-id="1459"></path><path d="M597.2 243.5c-6.9 0-12.5 5.6-12.5 12.5s5.6 12.5 12.5 12.5H738L588.4 418c-37.9-33.7-86.2-52.1-137.4-52.1-55.3 0-107.4 21.6-146.5 60.7-80.8 80.8-80.8 212.2 0 293 40.4 40.4 93.4 60.6 146.5 60.6s106.1-20.2 146.5-60.6c77.8-77.8 80.7-202.6 8.6-283.9l149.6-149.6v140.8c0 6.9 5.6 12.5 12.5 12.5s12.5-5.6 12.5-12.5V243.5H597.2z m-17.4 458.4c-71 71-186.6 71-257.7 0s-71-186.6 0-257.7c34.4-34.4 80.2-53.4 128.8-53.4s94.4 19 128.8 53.4c71.2 71.1 71.2 186.7 0.1 257.7z" fill="#89C3EB" p-id="1460"></path></svg>