<?xml version="1.0" standalone="no"?><!DOCTYPE svg PUBLIC "-//W3C//DTD SVG 1.1//EN" "http://www.w3.org/Graphics/SVG/1.1/DTD/svg11.dtd"><svg t="1584770090455" class="icon" viewBox="0 0 1024 1024" version="1.1" xmlns="http://www.w3.org/2000/svg" p-id="955" xmlns:xlink="http://www.w3.org/1999/xlink" width="200" height="200"><defs><style type="text/css"></style></defs><path d="M596.1 427c-62.5-62.5-156.4-73.8-230.6-34.6 94 92.3 149.6 222.1 157.6 358.8 26.6-9.5 51.6-24.8 73-46.1 76.8-76.8 76.8-201.3 0-278.1z" fill="#F0908D" p-id="956"></path><path d="M697.6 344.1l79.3-79.3c4.9-4.9 4.9-12.8 0-17.7-4.9-4.9-12.8-4.9-17.7 0l-79.3 79.3-79.3-79.3c-4.9-4.9-12.8-4.9-17.7 0-4.9 4.9-4.9 12.8 0 17.7l79.3 79.3-70.8 70.8c-82-72.9-208.1-70-286.7 8.6-81.5 81.5-81.5 214.2 0 295.8 40.8 40.8 94.3 61.2 147.9 61.2 53.6 0 107.1-20.4 147.9-61.2 78.6-78.6 81.4-204.6 8.6-286.7l70.8-70.8 79.3 79.3c2.4 2.4 5.6 3.7 8.8 3.7s6.4-1.2 8.8-3.7c4.9-4.9 4.9-12.8 0-17.7l-79.2-79.3zM582.9 701.5c-71.8 71.8-188.6 71.8-260.4 0-71.8-71.8-71.8-188.6 0-260.4 35.9-35.9 83.1-53.8 130.2-53.8 47.2 0 94.3 17.9 130.2 53.8 71.8 71.8 71.8 188.6 0 260.4z" fill="#F0908D" p-id="957"></path></svg>